<svg width="187" height="400" viewBox="0 0 187 400" fill="none" xmlns="http://www.w3.org/2000/svg">
<path d="M26.201 0.813935C20.9176 0.311357 17.2552 5.36189 18.514 11.43C19.0448 14.0045 20.2321 15.935 22.2457 17.5128C25.8798 20.3373 30.2028 19.1667 32.6143 14.6915C33.78 12.5169 33.9371 10.647 33.1544 7.79902C32.1942 4.22403 29.049 1.07549 26.201 0.813935Z" fill="#69CB2D"/>
<path d="M6.9348 14.3023C1.37655 16.1558 -0.128605 22.8047 3.78273 28.2728C5.43877 30.5943 7.4782 31.9836 10.1994 32.6543C15.1007 33.8424 18.9606 30.7542 19.4516 25.2339C19.6841 22.5545 19.0296 20.6266 17 18.1455C14.4747 15.0213 9.9268 13.2939 6.9348 14.3023Z" fill="#69CB2D"/>
<path d="M58.8399 15.6133C56.9773 16.7458 54.7405 19.5095 53.9308 21.6849C53.5343 22.8209 53.4286 23.9048 53.577 25.4759C54.0059 29.3601 55.902 31.9495 58.9091 32.7423C62.6139 33.7097 66.4224 32.0956 69.0752 28.492C71.4307 25.2742 72.014 21.2757 70.565 18.2066C69.7747 16.5843 67.521 14.7909 65.6717 14.3235C63.8165 13.8236 60.8527 14.3875 58.8399 15.6133Z" fill="#69CB2D"/>
<path d="M41.5628 4.38271C40.3941 6.01737 39.4838 9.17743 39.5671 11.3231C39.6329 12.4338 39.9248 13.3959 40.6012 14.6824C42.3263 17.8393 44.8307 19.3655 47.638 18.9608C51.0931 18.4544 53.7292 15.7099 54.6939 11.6842C55.5447 8.09457 54.6303 4.47598 52.3338 2.38033C51.0992 1.28105 48.5744 0.56201 46.8548 0.827918C45.119 1.06841 42.8245 2.61438 41.5628 4.38271Z" fill="#69CB2D"/>
<path d="M58.8419 63.9901C57.359 65.2664 55.907 66.1926 54.257 66.8186C52.6098 67.4433 50.8286 67.7453 48.7209 67.8478L48.7148 67.8481C47.2111 67.9138 46.2191 67.9287 45.1169 67.7613C44.0416 67.5979 42.897 67.2659 41.0754 66.715C38.758 66.0087 37.4685 65.7134 36.3099 65.7202C35.1744 65.7269 34.0597 66.0249 32.089 66.7561C30.962 67.1753 30.1319 67.4414 29.0998 67.5871C28.1008 67.7283 26.9495 67.751 25.191 67.751C23.4042 67.751 22.2675 67.7291 21.3339 67.5847C20.3489 67.4324 19.6257 67.1504 18.6632 66.7307L18.6544 66.7269C9.87914 62.817 6.71842 53.7297 11.1469 45.519C12.7561 42.5304 14.876 40.2989 18.0201 38.2708C18.9712 37.6475 19.4937 37.2456 19.9358 36.7575C20.3881 36.2584 20.7989 35.6223 21.445 34.4663L21.4467 34.4633C22.2874 32.9709 23.4866 31.1564 24.1411 30.4144C24.9649 29.4804 26.1982 28.5337 27.5228 27.7354C28.8517 26.9344 30.3484 26.2373 31.7401 25.84C37.5751 24.1472 44.2476 25.7273 48.4205 29.7605L48.4261 29.7659C49.4245 30.7443 50.8242 32.6745 51.5883 34.1305L51.59 34.134C52.4552 35.7976 53.2191 36.6983 54.0095 37.2362L54.0302 37.2508C60.7716 42.0561 64.0899 47.0233 64.0899 53.1091C64.0899 57.4527 62.3907 60.9457 58.8419 63.9901Z" fill="#69CB2D"/>
<path d="M58.8419 63.9901C57.359 65.2664 55.907 66.1926 54.257 66.8186C52.6098 67.4433 50.8286 67.7453 48.7209 67.8478L48.7148 67.8481C47.2111 67.9138 46.2191 67.9287 45.1169 67.7613C44.0416 67.5979 42.897 67.2659 41.0754 66.715C38.758 66.0087 37.4685 65.7134 36.3099 65.7202C35.1744 65.7269 34.0597 66.0249 32.089 66.7561C30.962 67.1753 30.1319 67.4414 29.0998 67.5871C28.1008 67.7283 26.9495 67.751 25.191 67.751C23.4042 67.751 22.2675 67.7291 21.3339 67.5847C20.3489 67.4324 19.6257 67.1504 18.6632 66.7307L18.6544 66.7269C9.87914 62.817 6.71842 53.7297 11.1469 45.519C12.7561 42.5304 14.876 40.2989 18.0201 38.2708C18.9712 37.6475 19.4937 37.2456 19.9358 36.7575C20.3881 36.2584 20.7989 35.6223 21.445 34.4663L21.4467 34.4633C22.2874 32.9709 23.4866 31.1564 24.1411 30.4144C24.9649 29.4804 26.1982 28.5337 27.5228 27.7354C28.8517 26.9344 30.3484 26.2373 31.7401 25.84C37.5751 24.1472 44.2476 25.7273 48.4205 29.7605L48.4261 29.7659C49.4245 30.7443 50.8242 32.6745 51.5883 34.1305L51.59 34.134C52.4552 35.7976 53.2191 36.6983 54.0095 37.2362L54.0302 37.2508C60.7716 42.0561 64.0899 47.0233 64.0899 53.1091C64.0899 57.4527 62.3907 60.9457 58.8419 63.9901ZM58.8419 63.9901L58.0468 63.1975" stroke="#69CB2D" stroke-width="0.8"/>
<path d="M144.771 318.625C140.377 315.648 134.74 318.321 132.932 324.249C132.162 326.762 132.277 329.026 133.286 331.376C135.119 335.598 139.473 336.646 143.737 333.878C145.803 332.529 146.838 330.964 147.519 328.09C148.392 324.493 147.144 320.221 144.771 318.625Z" fill="#69CB2D"/>
<path d="M121.396 321.211C115.63 320.17 111.118 325.28 111.925 331.955C112.264 334.786 113.386 336.984 115.452 338.878C119.181 342.273 124.05 341.416 127.13 336.809C128.62 334.57 128.971 332.564 128.381 329.414C127.665 325.461 124.504 321.763 121.396 321.211Z" fill="#69CB2D"/>
<path d="M166.303 347.273C164.125 347.373 160.836 348.724 159.082 350.244C158.189 351.05 157.576 351.95 156.952 353.4C155.464 357.013 155.885 360.195 158.142 362.334C160.928 364.96 165.044 365.372 169.101 363.484C172.712 361.792 175.143 358.564 175.344 355.176C175.43 353.373 174.313 350.718 172.915 349.42C171.527 348.092 168.657 347.164 166.303 347.273Z" fill="#69CB2D"/>
<path d="M156.535 329.129C154.725 330.002 152.41 332.337 151.453 334.26C150.978 335.266 150.772 336.25 150.748 337.703C150.746 341.301 152.211 343.841 154.868 344.834C158.142 346.048 161.772 344.905 164.551 341.836C167.02 339.096 167.954 335.482 166.945 332.542C166.39 330.985 164.52 329.142 162.884 328.55C161.245 327.928 158.491 328.183 156.535 329.129Z" fill="#69CB2D"/>
<path d="M143.086 389.715C141.172 390.123 139.454 390.239 137.706 389.996C135.961 389.753 134.254 389.163 132.355 388.242L132.35 388.239C130.999 387.575 130.122 387.112 129.235 386.436C128.37 385.777 127.525 384.936 126.192 383.579C124.497 381.847 123.508 380.969 122.488 380.419C121.489 379.879 120.368 379.606 118.288 379.302C117.098 379.128 116.242 378.963 115.267 378.596C114.323 378.24 113.302 377.708 111.759 376.864C110.191 376.006 109.205 375.441 108.455 374.867C107.664 374.26 107.165 373.666 106.522 372.836L106.516 372.828C100.694 365.186 102.282 355.697 110.108 350.619C112.954 348.77 115.885 347.829 119.617 347.559C120.75 347.469 121.402 347.367 122.024 347.151C122.66 346.93 123.326 346.569 124.447 345.865L124.45 345.863C125.904 344.958 127.827 343.941 128.757 343.604C129.928 343.18 131.465 342.942 133.01 342.877C134.56 342.812 136.208 342.919 137.619 343.239C143.551 344.554 148.646 349.142 150.372 354.684L150.374 354.691C150.78 356.029 151.082 358.394 151.053 360.038L151.053 360.042C151.014 361.916 151.252 363.073 151.687 363.924L151.698 363.947C155.306 371.398 155.833 377.349 152.912 382.688C150.828 386.498 147.66 388.747 143.086 389.715Z" fill="#69CB2D"/>
<path d="M143.086 389.715C141.172 390.123 139.454 390.239 137.706 389.996C135.961 389.753 134.254 389.163 132.355 388.242L132.35 388.239C130.999 387.575 130.122 387.112 129.235 386.436C128.37 385.777 127.525 384.936 126.192 383.579C124.497 381.847 123.508 380.969 122.488 380.419C121.489 379.879 120.368 379.606 118.288 379.302C117.098 379.128 116.242 378.963 115.267 378.596C114.323 378.24 113.302 377.708 111.759 376.864C110.191 376.006 109.205 375.441 108.455 374.867C107.664 374.26 107.165 373.666 106.522 372.836L106.516 372.828C100.694 365.186 102.282 355.697 110.108 350.619C112.954 348.77 115.885 347.829 119.617 347.559C120.75 347.469 121.402 347.367 122.024 347.151C122.66 346.93 123.326 346.569 124.447 345.865L124.45 345.863C125.904 344.958 127.827 343.941 128.757 343.604C129.928 343.18 131.465 342.942 133.01 342.877C134.56 342.812 136.208 342.919 137.619 343.239C143.551 344.554 148.646 349.142 150.372 354.684L150.374 354.691C150.78 356.029 151.082 358.394 151.053 360.038L151.053 360.042C151.014 361.916 151.252 363.073 151.687 363.924L151.698 363.947C155.306 371.398 155.833 377.349 152.912 382.688C150.828 386.498 147.66 388.747 143.086 389.715ZM143.086 389.715L142.769 388.638" stroke="#69CB2D" stroke-width="0.8"/>
<path d="M41.2269 195.935C36.3165 197.948 35.4246 204.123 39.3623 208.908C41.03 210.94 42.9792 212.097 45.4957 212.556C50.0266 213.366 53.3085 210.318 53.3608 205.235C53.3808 202.767 52.6498 201.039 50.6319 198.882C48.1185 196.165 43.8696 194.841 41.2269 195.935Z" fill="#69CB2D"/>
<path d="M30.4499 216.838C26.3924 221.065 28.1538 227.651 34.1602 230.671C36.7062 231.955 39.1578 232.236 41.8786 231.564C46.7699 230.335 48.7496 225.805 46.6156 220.69C45.5746 218.211 44.0983 216.809 41.1474 215.557C37.4585 213.966 32.6291 214.553 30.4499 216.838Z" fill="#69CB2D"/>
<path d="M77.0045 193.848C75.8827 195.717 75.1887 199.204 75.4842 201.506C75.6618 202.696 76.0726 203.705 76.9349 205.027C79.1219 208.265 82.0051 209.675 85.0357 208.978C88.7652 208.11 91.3853 204.909 92.0567 200.485C92.6445 196.541 91.3003 192.73 88.5896 190.688C87.1353 189.619 84.306 189.081 82.4515 189.527C80.5768 189.948 78.2158 191.826 77.0045 193.848Z" fill="#69CB2D"/>
<path d="M56.4858 191.946C56.212 193.937 56.8765 197.157 57.9486 199.018C58.5236 199.97 59.2297 200.686 60.427 201.51C63.4229 203.502 66.3497 203.688 68.6464 202.023C71.4691 199.967 72.5254 196.311 71.5062 192.299C70.5891 188.726 68.096 185.948 65.0882 185.162C63.4838 184.763 60.9144 185.302 59.516 186.337C58.0915 187.358 56.7799 189.794 56.4858 191.946Z" fill="#69CB2D"/>
<path d="M99.5152 236.668C98.7965 238.488 97.9422 239.983 96.7729 241.305C95.6056 242.624 94.1694 243.721 92.3515 244.792L92.3462 244.795C91.0458 245.553 90.1746 246.028 89.1211 246.392C88.0933 246.748 86.9257 246.987 85.057 247.347C82.677 247.8 81.3982 248.138 80.3759 248.683C79.3739 249.218 78.5258 250 77.1218 251.564C76.3192 252.46 75.7082 253.081 74.8625 253.691C74.0438 254.28 73.0353 254.836 71.4788 255.654C69.8972 256.486 68.8809 256.995 67.9873 257.302C67.0446 257.626 66.2732 257.712 65.226 257.789L65.2164 257.789C55.6296 258.412 48.6037 251.839 48.7032 242.51C48.737 239.116 49.5752 236.155 51.4145 232.896C51.9664 231.902 52.2419 231.303 52.4061 230.666C52.5742 230.013 52.6419 229.259 52.6759 227.935L52.6761 227.932C52.7258 226.22 52.943 224.056 53.1771 223.094C53.4716 221.884 54.1229 220.472 54.9239 219.149C55.7275 217.822 56.7279 216.509 57.775 215.509C62.1522 211.296 68.7936 209.59 74.3639 211.218L74.3714 211.221C75.7104 211.622 77.8474 212.679 79.2012 213.613L79.2044 213.615C80.7443 214.685 81.8395 215.127 82.7894 215.235L82.8146 215.238C91.0176 216.355 96.266 219.208 99.0977 224.595C101.119 228.44 101.24 232.322 99.5152 236.668Z" fill="#69CB2D"/>
<path d="M99.5152 236.668C98.7965 238.488 97.9422 239.983 96.7729 241.305C95.6056 242.624 94.1694 243.721 92.3515 244.792L92.3462 244.795C91.0458 245.553 90.1746 246.028 89.1211 246.392C88.0933 246.748 86.9257 246.987 85.057 247.347C82.677 247.8 81.3982 248.138 80.3759 248.683C79.3739 249.218 78.5258 250 77.1218 251.564C76.3192 252.46 75.7082 253.081 74.8625 253.691C74.0438 254.28 73.0353 254.836 71.4788 255.654C69.8972 256.486 68.8809 256.995 67.9873 257.302C67.0446 257.625 66.2732 257.712 65.226 257.789L65.2164 257.789C55.6296 258.412 48.6037 251.839 48.7032 242.51C48.737 239.116 49.5752 236.155 51.4145 232.896C51.9664 231.902 52.2419 231.303 52.4061 230.666C52.5742 230.013 52.6419 229.259 52.6759 227.935L52.6761 227.932C52.7258 226.22 52.943 224.056 53.1771 223.094C53.4716 221.884 54.1229 220.472 54.9239 219.149C55.7275 217.822 56.7279 216.509 57.775 215.509C62.1522 211.296 68.7936 209.59 74.3639 211.218L74.3714 211.221C75.7104 211.622 77.8474 212.679 79.2012 213.613L79.2044 213.615C80.7443 214.685 81.8395 215.127 82.7894 215.235L82.8146 215.238C91.0176 216.355 96.266 219.208 99.0977 224.595C101.119 228.44 101.24 232.322 99.5152 236.668ZM99.5152 236.668L98.4427 236.336" stroke="#69CB2D" stroke-width="0.8"/>
<path d="M140.364 67.7689C136.06 64.6642 130.346 67.17 128.364 73.0419C127.521 75.5314 127.569 77.7974 128.509 80.1767C130.216 84.4509 134.538 85.6265 138.881 82.9847C140.986 81.6978 142.067 80.1639 142.832 77.311C143.811 73.7411 142.689 69.4345 140.364 67.7689Z" fill="#69CB2D"/>
<path d="M116.923 69.6664C111.19 68.4554 106.53 73.431 107.14 80.1263C107.395 82.9665 108.452 85.1962 110.461 87.1507C114.089 90.6538 118.981 89.9408 122.195 85.4262C123.751 83.232 124.161 81.2378 123.664 78.0711C123.065 74.0988 120.014 70.3091 116.923 69.6664Z" fill="#69CB2D"/>
<path d="M161.043 97.0404C158.863 97.0759 155.536 98.3294 153.738 99.797C152.821 100.577 152.182 101.458 151.516 102.889C149.922 106.457 150.249 109.65 152.443 111.854C155.15 114.562 159.252 115.095 163.363 113.327C167.022 111.741 169.547 108.586 169.848 105.206C169.986 103.407 168.949 100.72 167.589 99.3816C166.241 98.0124 163.399 97.0005 161.043 97.0404Z" fill="#69CB2D"/>
<path d="M151.814 78.6145C149.979 79.434 147.596 81.7002 146.583 83.5935C146.078 84.5851 145.843 85.5628 145.777 87.0147C145.669 90.6106 147.058 93.1935 149.685 94.2637C152.922 95.5736 156.584 94.5384 159.451 91.5529C162 88.886 163.041 85.3016 162.119 82.3325C161.61 80.7598 159.795 78.863 158.177 78.223C156.557 77.5529 153.796 77.7267 151.814 78.6145Z" fill="#69CB2D"/>
<path d="M136.585 138.778C134.66 139.13 132.939 139.195 131.199 138.901C129.462 138.607 127.773 137.967 125.903 136.99L125.897 136.987C124.567 136.283 123.703 135.795 122.837 135.093C121.992 134.408 121.172 133.543 119.879 132.147C118.237 130.366 117.273 129.459 116.27 128.879C115.287 128.311 114.175 128.005 112.105 127.639C110.921 127.431 110.07 127.241 109.106 126.845C108.172 126.462 107.168 125.899 105.65 125.01C104.109 124.107 103.139 123.513 102.407 122.916C101.634 122.287 101.152 121.678 100.534 120.829L100.529 120.822C94.9342 113.012 96.8015 103.573 104.773 98.7283C107.673 96.9633 110.63 96.1099 114.368 95.9496C115.504 95.8927 116.158 95.8102 116.786 95.6125C117.429 95.4105 118.105 95.0695 119.246 94.3988L119.249 94.3971C120.729 93.5345 122.681 92.5752 123.621 92.266C124.804 91.8766 126.347 91.6833 127.893 91.6643C129.445 91.6451 131.089 91.8003 132.49 92.1612C138.38 93.6507 143.338 98.3874 144.9 103.977L144.902 103.984C145.268 105.333 145.5 107.706 145.423 109.349L145.423 109.353C145.328 111.225 145.532 112.389 145.942 113.252L145.953 113.276C149.339 120.83 149.691 126.793 146.614 132.044C144.418 135.791 141.186 137.946 136.585 138.778Z" fill="#69CB2D"/>
<path d="M136.585 138.778C134.66 139.13 132.939 139.195 131.199 138.901C129.462 138.607 127.773 137.967 125.903 136.99L125.897 136.987C124.567 136.283 123.703 135.795 122.837 135.093C121.992 134.408 121.172 133.543 119.879 132.147C118.237 130.366 117.273 129.459 116.27 128.879C115.287 128.311 114.175 128.005 112.105 127.639C110.921 127.431 110.07 127.241 109.106 126.845C108.172 126.462 107.168 125.899 105.65 125.01C104.109 124.107 103.139 123.513 102.407 122.916C101.634 122.287 101.152 121.678 100.534 120.829L100.529 120.822C94.9342 113.012 96.8015 103.573 104.773 98.7283C107.673 96.9633 110.63 96.1099 114.368 95.9496C115.504 95.8927 116.158 95.8102 116.786 95.6125C117.429 95.4105 118.105 95.0695 119.246 94.3988L119.249 94.3971C120.729 93.5345 122.681 92.5752 123.621 92.266C124.804 91.8766 126.347 91.6833 127.893 91.6643C129.445 91.6451 131.089 91.8003 132.49 92.1612C138.38 93.6507 143.338 98.3874 144.9 103.977L144.902 103.984C145.268 105.333 145.5 107.706 145.423 109.349L145.423 109.353C145.328 111.225 145.532 112.389 145.942 113.252L145.953 113.276C149.339 120.83 149.691 126.793 146.614 132.044C144.418 135.791 141.186 137.946 136.585 138.778ZM136.585 138.778L136.3 137.693" stroke="#69CB2D" stroke-width="0.8"/>
</svg>
